<?xml version="1.0" standalone="no"?>
<!DOCTYPE svg PUBLIC "-//W3C//DTD SVG 20010904//EN"
 "http://www.w3.org/TR/2001/REC-SVG-20010904/DTD/svg10.dtd">
<svg version="1.0" xmlns="http://www.w3.org/2000/svg"
 width="700.000000pt" height="700.000000pt" viewBox="0 0 700.000000 700.000000"
 preserveAspectRatio="xMidYMid meet">
<metadata>
Created by potrace 1.14, written by Peter Selinger 2001-2017
</metadata>
<g transform="translate(0.000000,700.000000) scale(0.100000,-0.100000)"
fill="#000000" stroke="none">
<path d="M3278 6995 c-1 -1 -42 -5 -89 -9 -47 -4 -95 -8 -105 -10 -10 -2 -41
-7 -69 -10 -335 -44 -715 -158 -1030 -312 -180 -87 -448 -247 -555 -331 -8 -6
-51 -40 -95 -74 -134 -104 -342 -300 -460 -434 -319 -360 -579 -826 -724
-1295 -22 -72 -67 -248 -75 -295 -3 -16 -8 -40 -10 -52 -3 -11 -8 -43 -12 -70
-5 -26 -9 -50 -9 -53 -1 -3 -5 -32 -9 -65 -5 -33 -10 -68 -12 -79 -24 -133
-24 -654 0 -806 2 -14 7 -47 10 -75 3 -27 9 -63 11 -80 3 -16 10 -57 16 -90 6
-33 22 -107 35 -165 200 -835 685 -1550 1393 -2054 67 -47 123 -86 126 -86 3
0 37 -21 77 -47 180 -115 547 -280 773 -347 50 -15 113 -33 140 -42 128 -37
413 -86 605 -103 200 -18 609 -6 785 23 22 4 69 11 105 17 273 43 627 156 904
289 410 196 774 466 1081 802 87 95 109 121 176 208 330 426 552 905 663 1430
14 69 19 94 32 175 2 17 6 41 9 55 3 14 7 54 11 90 3 36 9 101 13 145 8 81 5
496 -3 570 -3 22 -8 65 -11 95 -9 76 -15 122 -20 140 -2 8 -7 35 -10 60 -23
169 -104 456 -192 680 -207 526 -571 1031 -998 1385 -33 28 -62 53 -65 56 -4
5 -138 102 -270 196 -111 79 -424 244 -600 316 -220 90 -568 187 -760 212 -19
3 -46 7 -60 10 -13 2 -52 7 -86 11 -33 3 -74 8 -90 10 -32 5 -540 14 -546 9z"/>
</g>
</svg>
